<?xml version="1.0" encoding="utf-8"?>
<!-- Generator: Adobe Illustrator 21.0.0, SVG Export Plug-In . SVG Version: 6.00 Build 0)  -->
<svg version="1.1" id="Capa_1" xmlns="http://www.w3.org/2000/svg" xmlns:xlink="http://www.w3.org/1999/xlink" x="0px" y="0px"
	 viewBox="0 0 80 80" style="enable-background:new 0 0 80 80;" xml:space="preserve">
<style type="text/css">
	.st0{fill:#8E8E8E;}
	.st1{fill:#8E8E8E;stroke:#8E8E8E;stroke-width:0.5;stroke-miterlimit:10;}
	.st2{fill:#8E8E8E;stroke:#8E8E8E;stroke-width:0.5543;stroke-miterlimit:10;}
	.st3{fill:#8E8E8E;stroke:#8E8E8E;stroke-width:0.25;stroke-miterlimit:10;}
	.st4{fill:#8E8E8E;stroke:#8E8E8E;stroke-width:0.75;stroke-miterlimit:10;}
</style>
<g>
	<path class="st0" d="M54.5,28.9h-6v-7.3c0-0.8-0.6-1.5-1.5-1.5H35.1c-0.4,0-0.7,0.1-1,0.4l-9.6,8.8c-0.3,0.3-0.5,0.7-0.5,1.1v19.3
		c0,0.8,0.6,1.5,1.5,1.5h6v7.3c0,0.8,0.6,1.5,1.5,1.5h21.5c0.8,0,1.5-0.6,1.5-1.5V30.3C55.9,29.5,55.3,28.9,54.5,28.9L54.5,28.9z
		 M34,24.6V30h-5.9L34,24.6z M27,48.2V32.9h8.5c0.8,0,1.5-0.7,1.5-1.5V23h8.6v5.8h-3c-0.4,0-0.7,0.1-1,0.4L32,38
		c-0.3,0.3-0.5,0.7-0.5,1.1v9.1H27z M41.5,33.3v5.4h-5.9L41.5,33.3z M53,57H34.4V41.6h8.5c0.8,0,1.5-0.7,1.5-1.5v-8.4H53V57z M53,57
		"/>
</g>
</svg>
