<?xml version="1.0" encoding="utf-8"?>
<!-- Generator: Adobe Illustrator 21.0.0, SVG Export Plug-In . SVG Version: 6.00 Build 0)  -->
<svg version="1.1" id="Capa_1" xmlns="http://www.w3.org/2000/svg" xmlns:xlink="http://www.w3.org/1999/xlink" x="0px" y="0px"
	 viewBox="0 0 80 80" style="enable-background:new 0 0 80 80;" xml:space="preserve">
<style type="text/css">
	.st0{fill:#8E8E8E;}
	.st1{fill:#8E8E8E;stroke:#8E8E8E;stroke-width:0.5;stroke-miterlimit:10;}
	.st2{fill:#8E8E8E;stroke:#8E8E8E;stroke-width:0.5543;stroke-miterlimit:10;}
	.st3{fill:#8E8E8E;stroke:#8E8E8E;stroke-width:0.25;stroke-miterlimit:10;}
	.st4{fill:#8E8E8E;stroke:#8E8E8E;stroke-width:0.75;stroke-miterlimit:10;}
</style>
<g>
	<path class="st0" d="M52.7,28.5h-1v-2.2c0-3.2-2.6-5.8-5.8-5.8H33.9c-3.2,0-5.8,2.6-5.8,5.8v2.2h-0.9c-3.2,0-5.8,2.6-5.8,5.8v9.3
		c0,3.2,2.6,5.8,5.8,5.8h0.9v7.3c0,1.6,1.3,2.9,2.9,2.9h17.8c1.6,0,2.9-1.3,2.9-2.9v-7.3h1c3.2,0,5.8-2.6,5.8-5.8v-9.3
		C58.5,31.1,55.9,28.5,52.7,28.5L52.7,28.5z M30.3,26.3c0-2,1.6-3.6,3.6-3.6H46c2,0,3.6,1.6,3.6,3.6v2.2H30.3V26.3z M49.6,56.6
		c0,0.4-0.3,0.7-0.7,0.7H31c-0.4,0-0.7-0.3-0.7-0.7v-12h19.2V56.6z M56.3,43.6c0,2-1.6,3.6-3.6,3.6h-1v-2.5h1.4
		c0.6,0,1.1-0.5,1.1-1.1c0-0.6-0.5-1.1-1.1-1.1H26.6c-0.6,0-1.1,0.5-1.1,1.1c0,0.6,0.5,1.1,1.1,1.1h1.6v2.5h-0.9
		c-2,0-3.6-1.6-3.6-3.6v-9.3c0-2,1.6-3.6,3.6-3.6h25.5c2,0,3.6,1.6,3.6,3.6V43.6z M56.3,43.6"/>
	<path class="st0" d="M33,49.9h13.9c0.6,0,1.1-0.5,1.1-1.1c0-0.6-0.5-1.1-1.1-1.1H33c-0.6,0-1.1,0.5-1.1,1.1
		C31.9,49.5,32.4,49.9,33,49.9L33,49.9z M33,49.9"/>
	<path class="st0" d="M46.9,52.2H33.1c-0.6,0-1.1,0.5-1.1,1.1s0.5,1.1,1.1,1.1h13.9c0.6,0,1.1-0.5,1.1-1.1S47.5,52.2,46.9,52.2
		L46.9,52.2z M46.9,52.2"/>
	<path class="st0" d="M52.7,32.8h-2.2c-0.6,0-1.1,0.5-1.1,1.1c0,0.6,0.5,1.1,1.1,1.1h2.2c0.6,0,1.1-0.5,1.1-1.1
		C53.8,33.3,53.3,32.8,52.7,32.8L52.7,32.8z M52.7,32.8"/>
</g>
</svg>
