<?xml version="1.0" encoding="utf-8"?>
<!-- Generator: Adobe Illustrator 21.0.0, SVG Export Plug-In . SVG Version: 6.00 Build 0)  -->
<svg version="1.1" id="Capa_1" xmlns="http://www.w3.org/2000/svg" xmlns:xlink="http://www.w3.org/1999/xlink" x="0px" y="0px"
	 viewBox="0 0 80 80" style="enable-background:new 0 0 80 80;" xml:space="preserve">
<style type="text/css">
	.st0{fill:#8E8E8E;}
	.st1{fill:#8E8E8E;stroke:#8E8E8E;stroke-width:0.5;stroke-miterlimit:10;}
	.st2{fill:#8E8E8E;stroke:#8E8E8E;stroke-width:0.5543;stroke-miterlimit:10;}
	.st3{fill:#8E8E8E;stroke:#8E8E8E;stroke-width:0.25;stroke-miterlimit:10;}
	.st4{fill:#8E8E8E;stroke:#8E8E8E;stroke-width:0.75;stroke-miterlimit:10;}
</style>
<g>
	<path class="st0" d="M26.2,30.5c0.5,0,0.9,0.4,0.9,0.9c0,0.5-0.4,0.9-0.9,0.9c-0.5,0-0.9-0.4-0.9-0.9
		C25.4,30.9,25.7,30.5,26.2,30.5L26.2,30.5z M26.2,34.9c1.9,0,3.5-1.6,3.5-3.5c0-1.9-1.6-3.5-3.5-3.5s-3.5,1.6-3.5,3.5
		C22.7,33.3,24.3,34.9,26.2,34.9L26.2,34.9z"/>
	<g>
		<path class="st0" d="M25.4,45.8c0-0.5,0.4-0.9,0.9-0.9c0.5,0,0.9,0.4,0.9,0.9c0,0.5-0.4,0.9-0.9,0.9
			C25.7,46.6,25.4,46.2,25.4,45.8L25.4,45.8z M29.7,45.8c0-1.9-1.6-3.5-3.5-3.5s-3.5,1.6-3.5,3.5c0,1.9,1.6,3.5,3.5,3.5
			S29.7,47.7,29.7,45.8L29.7,45.8z"/>
		<path class="st0" d="M59.6,54.5H41.1v-0.2v-1.3c0-0.9-0.1-1.8-0.2-2.7c-0.5-3.2-1.9-6.1-4-8.3c-0.7-0.7-1.4-1.4-2.3-2h12.7
			c7,0,12.3,5.6,12.3,13V54.5L59.6,54.5L59.6,54.5z M20.4,45.8c0-3.2,2.6-5.9,5.9-5.9c3.2,0,5.9,2.6,5.9,5.9c0,3.2-2.6,5.9-5.9,5.9
			C23,51.6,20.4,49,20.4,45.8L20.4,45.8z M26.2,25.5c3.2,0,5.9,2.6,5.9,5.9c0,3.2-2.6,5.9-5.9,5.9h0c-3.2,0-5.9-2.6-5.9-5.9
			C20.4,28.2,23,25.5,26.2,25.5L26.2,25.5z M34.3,42.9C34.3,43,34.3,43,34.3,42.9c0.1,0.1,0.2,0.2,0.2,0.2c0,0,0,0,0.1,0.1
			c0.1,0.1,0.1,0.1,0.2,0.2c0,0,0,0,0,0c0.1,0.1,0.1,0.1,0.2,0.2c0,0,0,0,0.1,0.1c0,0.1,0.1,0.1,0.1,0.2c0,0,0,0.1,0.1,0.1
			c0,0,0.1,0.1,0.1,0.1c0,0,0.1,0.1,0.1,0.1c0,0,0.1,0.1,0.1,0.1c0,0,0.1,0.1,0.1,0.1c0,0,0.1,0.1,0.1,0.1c0,0,0.1,0.1,0.1,0.1
			c0,0,0.1,0.1,0.1,0.1c0,0,0.1,0.1,0.1,0.1c0,0,0.1,0.1,0.1,0.1c0,0,0,0.1,0.1,0.1c0,0,0.1,0.1,0.1,0.1c0,0,0,0.1,0.1,0.1
			c0,0,0.1,0.1,0.1,0.1c0,0,0,0.1,0.1,0.1c0,0,0.1,0.1,0.1,0.1c0,0,0,0.1,0.1,0.1c0,0,0.1,0.1,0.1,0.1c0,0,0,0.1,0.1,0.1
			c0,0.1,0.1,0.1,0.1,0.2c0,0,0,0.1,0.1,0.1c0,0.1,0.1,0.1,0.1,0.2c0,0,0,0.1,0.1,0.1c0,0.1,0.1,0.1,0.1,0.2c0,0,0,0.1,0,0.1
			c0,0.1,0.1,0.1,0.1,0.2c0,0,0,0.1,0,0.1c0,0.1,0.1,0.2,0.1,0.3c0,0,0,0,0,0c0,0.1,0.1,0.2,0.1,0.2c0,0,0,0.1,0,0.1
			c0,0.1,0,0.1,0.1,0.2c0,0,0,0.1,0,0.1c0,0.1,0,0.1,0.1,0.2c0,0,0,0.1,0,0.1c0,0.1,0,0.1,0.1,0.2c0,0,0,0.1,0,0.1
			c0,0.1,0,0.1,0,0.2c0,0,0,0.1,0,0.1c0,0.1,0,0.1,0,0.2c0,0,0,0.1,0,0.1c0,0.1,0,0.1,0,0.2c0,0,0,0.1,0,0.1c0,0.1,0,0.1,0,0.2
			c0,0,0,0.1,0,0.1c0,0.1,0,0.1,0,0.2c0,0,0,0.1,0,0.1c0,0.1,0,0.1,0,0.2c0,0,0,0.1,0,0.1c0,0.1,0,0.1,0,0.2c0,0,0,0.1,0,0.1
			c0,0.1,0,0.1,0,0.2c0,0,0,0.1,0,0.1c0,0.1,0,0.1,0,0.2c0,0,0,0.1,0,0.1c0,0,0,0,0,0h-6c1.5-1.5,2.3-3.6,2.3-5.9
			C34.7,44.8,34.6,43.8,34.3,42.9C34.2,42.9,34.3,42.9,34.3,42.9L34.3,42.9z M53.2,31.4c0,3.2-2.6,5.9-5.9,5.9h-15
			c1.5-1.5,2.3-3.6,2.3-5.9c0-2.3-0.9-4.3-2.3-5.9h15C50.6,25.5,53.2,28.2,53.2,31.4L53.2,31.4z M58.1,41.9c-1.6-1.7-3.5-3-5.6-3.7
			c2-1.6,3.4-4,3.4-6.8c0-4.7-3.8-8.5-8.5-8.5H26.2c-4.7,0-8.5,3.8-8.5,8.5c0,3,1.6,5.7,4,7.2c-2.4,1.5-4,4.2-4,7.2
			c0,4.7,3.8,8.5,8.5,8.5h12.3v2.9h23.8v-4.2C62.3,48.7,60.8,44.8,58.1,41.9L58.1,41.9z"/>
	</g>
</g>
</svg>
