<?xml version="1.0" encoding="utf-8"?>
<!-- Generator: Adobe Illustrator 21.0.0, SVG Export Plug-In . SVG Version: 6.00 Build 0)  -->
<svg version="1.1" id="Capa_1" xmlns="http://www.w3.org/2000/svg" xmlns:xlink="http://www.w3.org/1999/xlink" x="0px" y="0px"
	 viewBox="0 0 80 80" style="enable-background:new 0 0 80 80;" xml:space="preserve">
<style type="text/css">
	.st0{fill:#8E8E8E;}
	.st1{fill:#8E8E8E;stroke:#8E8E8E;stroke-width:0.5;stroke-miterlimit:10;}
	.st2{fill:#8E8E8E;stroke:#8E8E8E;stroke-width:0.5543;stroke-miterlimit:10;}
	.st3{fill:#8E8E8E;stroke:#8E8E8E;stroke-width:0.25;stroke-miterlimit:10;}
	.st4{fill:#8E8E8E;stroke:#8E8E8E;stroke-width:0.75;stroke-miterlimit:10;}
</style>
<g>
	<path class="st2" d="M26.6,28.7c0,1.2,1,2.2,2.2,2.2c1.2,0,2.2-1,2.2-2.2c0-1.2-1-2.2-2.2-2.2C27.5,26.6,26.6,27.5,26.6,28.7
		L26.6,28.7z M29.1,28.7c0,0.2-0.2,0.4-0.4,0.4c-0.2,0-0.4-0.2-0.4-0.4c0-0.2,0.2-0.4,0.4-0.4C28.9,28.3,29.1,28.5,29.1,28.7
		L29.1,28.7z M29.1,28.7"/>
	<path class="st2" d="M25.3,28.7c0-1.9,1.5-3.4,3.4-3.4c0.5,0,0.9-0.4,0.9-0.9s-0.4-0.9-0.9-0.9c-2.8,0-5.1,2.3-5.1,5.1
		c0,0.5,0.4,0.9,0.9,0.9C24.9,29.6,25.3,29.2,25.3,28.7L25.3,28.7z M25.3,28.7"/>
	<path class="st2" d="M30.8,26.1c0.8,0.6,1.3,1.6,1.3,2.7c0,1.9-1.5,3.4-3.4,3.4c-0.5,0-0.9,0.4-0.9,0.9c0,0.5,0.4,0.9,0.9,0.9
		c2.8,0,5.1-2.3,5.1-5.1c0-1.6-0.7-3.1-2-4c-0.4-0.3-0.9-0.2-1.2,0.1C30.4,25.2,30.4,25.8,30.8,26.1L30.8,26.1z M30.8,26.1"/>
	<path class="st2" d="M59.4,21.5c0-0.5-0.4-0.9-0.9-0.9H28.7c-4.5,0-8.1,3.6-8.1,8.1c0,0,0,0,0,0c0,0,0,0,0,0v22.5
		c0,4.5,3.6,8.1,8.1,8.1c4.2,0,7.6-3.2,8.1-7.2h14.7c0,0,0.1,0,0.1,0c0.2,0,0.3-0.1,0.5-0.2c0,0,0,0,0,0c0,0,0,0,0,0c0,0,0,0,0,0
		l7-7.1c0,0,0,0,0,0l0,0c0,0,0,0,0,0c0,0,0,0,0-0.1c0,0,0,0,0,0c0,0,0,0,0-0.1c0,0,0,0,0,0c0,0,0,0,0-0.1c0,0,0,0,0,0c0,0,0,0,0-0.1
		c0,0,0,0,0,0c0,0,0,0,0-0.1c0,0,0,0,0,0c0,0,0,0,0-0.1c0,0,0,0,0,0c0,0,0,0,0-0.1c0,0,0-0.1,0-0.1c0,0,0,0,0,0V21.5z M57.6,22.4
		v20.9h-6.1c-0.5,0-0.9,0.4-0.9,0.9v6.2H36.9V28.8c0,0,0,0,0,0c0,0,0,0,0,0c0-2.6-1.2-4.9-3.1-6.4H57.6z M56.4,45l-4,4.1V45H56.4z
		 M28.7,22.4c3.5,0,6.4,2.9,6.4,6.4c0,3.5-2.9,6.4-6.4,6.4c-3.5,0-6.4-2.9-6.4-6.4C22.4,25.2,25.2,22.4,28.7,22.4L28.7,22.4z
		 M28.7,57.6c-3.5,0-6.4-2.9-6.4-6.4V33.8c1.5,1.9,3.8,3.1,6.4,3.1c2.6,0,4.9-1.2,6.4-3.1v17.5C35.1,54.8,32.2,57.6,28.7,57.6
		L28.7,57.6z M28.7,57.6"/>
</g>
</svg>
