<?xml version="1.0" encoding="utf-8"?>
<!-- Generator: Adobe Illustrator 21.0.0, SVG Export Plug-In . SVG Version: 6.00 Build 0)  -->
<svg version="1.1" id="Capa_1" xmlns="http://www.w3.org/2000/svg" xmlns:xlink="http://www.w3.org/1999/xlink" x="0px" y="0px"
	 viewBox="0 0 80 80" style="enable-background:new 0 0 80 80;" xml:space="preserve">
<style type="text/css">
	.st0{fill:#8E8E8E;}
	.st1{fill:#8E8E8E;stroke:#8E8E8E;stroke-width:0.5;stroke-miterlimit:10;}
	.st2{fill:#8E8E8E;stroke:#8E8E8E;stroke-width:0.5543;stroke-miterlimit:10;}
	.st3{fill:#8E8E8E;stroke:#8E8E8E;stroke-width:0.25;stroke-miterlimit:10;}
	.st4{fill:#8E8E8E;stroke:#8E8E8E;stroke-width:0.75;stroke-miterlimit:10;}
</style>
<g>
	<path class="st4" d="M28.3,60.7c3.5,0,7.3-1,8.2-2.7c0.1-0.1,0.2-0.3,0.2-0.5V46.3c0.1,0.1,0.2,0.1,0.3,0.1c1,0.2,2,0.3,3.1,0.3
		c1.1,0,2.2-0.1,3.2-0.3v11c0,0.2,0.1,0.4,0.2,0.5c0.7,1.3,3,2.1,5.2,2.5c1,0.2,2,0.3,3.1,0.3c1.2,0,2.4-0.1,3.6-0.3
		c2.5-0.5,4.1-1.4,4.6-2.4c0.1-0.1,0.2-0.3,0.2-0.5V36.8c0-0.1,0-0.3-0.1-0.4c-0.6-1.9-4.6-3.2-8.3-3.2c-3.7,0-7.8,1.3-8.4,3.2
		c-0.1,0.1-0.1,0.2-0.1,0.4v8.1c-1.9,0.4-4.1,0.4-6.1,0.1c-0.2,0-0.4,0-0.5,0.1v-8.3c0-0.1,0-0.3-0.1-0.4c-0.6-1.9-4.6-3.2-8.3-3.2
		c-3.7,0-7.8,1.3-8.4,3.2c-0.1,0.1-0.1,0.2-0.1,0.4v20.6c0,0.2,0.1,0.4,0.2,0.5C20.9,59.7,24.7,60.7,28.3,60.7L28.3,60.7z
		 M51.8,34.8c4.2,0,6.9,1.5,6.9,2.2c0,0,0,0.1,0,0.1v20c0,0,0,0.1,0,0.1c0,0.3-1,1.2-3.6,1.7C53.2,59.3,51,59.3,49,59
		c-2.9-0.5-4.2-1.5-4.2-1.8c0,0,0-0.1,0-0.1v-20c0,0,0-0.1,0-0.1C44.8,36.3,47.6,34.8,51.8,34.8L51.8,34.8z M28.3,34.8
		c4.2,0,6.9,1.5,6.9,2.2c0,0,0,0.1,0,0.1v20c0,0,0,0.1,0,0.1c0,0.6-2.7,2-6.9,2c-4.2,0-7-1.4-7-2c0,0,0-0.1,0-0.1v-20
		c0,0,0-0.1,0-0.1C21.3,36.3,24.1,34.8,28.3,34.8L28.3,34.8z M28.3,34.8"/>
	<path class="st4" d="M28.3,40.6c0.6,0,6.2-0.1,6.2-2.3c0-0.4-0.3-0.7-0.7-0.7c-0.4,0-0.7,0.3-0.7,0.6c-0.3,0.3-2,0.9-4.8,0.9
		c-2.8,0-4.4-0.6-4.7-0.9c0-0.4-0.4-0.6-0.7-0.6c-0.4,0-0.7,0.3-0.7,0.7C22.1,40.5,27.7,40.6,28.3,40.6L28.3,40.6z M28.3,40.6"/>
	<path class="st4" d="M30.7,36.7c0,0.5-1,0.8-2.3,0.8c-1.3,0-2.3-0.4-2.3-0.8c0-0.5,1-0.8,2.3-0.8C29.6,35.9,30.7,36.3,30.7,36.7
		L30.7,36.7z M30.7,36.7"/>
	<path class="st4" d="M33.9,23.6c-0.4,0-0.7,0.3-0.7,0.7c0,2.2,5.6,2.3,6.2,2.3c0.6,0,6.2-0.1,6.2-2.3c0-0.4-0.3-0.7-0.7-0.7
		c-0.4,0-0.7,0.3-0.7,0.6c-0.3,0.3-2,0.9-4.8,0.9c-2.8,0-4.4-0.6-4.7-0.9C34.5,23.8,34.2,23.6,33.9,23.6L33.9,23.6z M33.9,23.6"/>
	<path class="st4" d="M47,33.1c0.4,0,0.7-0.3,0.7-0.7v-9.6c0-0.1,0-0.3-0.1-0.4c-0.6-1.9-4.6-3.2-8.3-3.2c-3.7,0-7.8,1.3-8.4,3.2
		c-0.1,0.1-0.1,0.2-0.1,0.4v9.6c0,0.4,0.3,0.7,0.7,0.7c0.4,0,0.7-0.3,0.7-0.7v-9.3c0,0,0-0.1,0-0.1c0-0.6,2.8-2.2,7-2.2
		c4.2,0,6.9,1.5,6.9,2.2c0,0,0,0.1,0,0.1v9.3C46.3,32.8,46.6,33.1,47,33.1L47,33.1z M47,33.1"/>
	<path class="st4" d="M41.7,22.7c0,0.5-1,0.8-2.3,0.8c-1.3,0-2.3-0.4-2.3-0.8c0-0.5,1-0.8,2.3-0.8C40.7,21.9,41.7,22.3,41.7,22.7
		L41.7,22.7z M41.7,22.7"/>
	<path class="st4" d="M51.8,40.6c0.6,0,6.2-0.1,6.2-2.3c0-0.4-0.3-0.7-0.7-0.7c-0.4,0-0.7,0.3-0.7,0.6c-0.3,0.3-2,0.9-4.8,0.9
		c-2.8,0-4.4-0.6-4.8-0.9c0-0.4-0.4-0.6-0.7-0.6c-0.4,0-0.7,0.3-0.7,0.7C45.6,40.5,51.2,40.6,51.8,40.6L51.8,40.6z M51.8,40.6"/>
	<path class="st4" d="M54.2,36.7c0,0.5-1,0.8-2.3,0.8c-1.3,0-2.3-0.4-2.3-0.8c0-0.5,1-0.8,2.3-0.8C53.2,35.9,54.2,36.3,54.2,36.7
		L54.2,36.7z M54.2,36.7"/>
</g>
</svg>
