<?xml version="1.0" encoding="utf-8"?>
<!-- Generator: Adobe Illustrator 21.0.0, SVG Export Plug-In . SVG Version: 6.00 Build 0)  -->
<svg version="1.1" id="Capa_1" xmlns="http://www.w3.org/2000/svg" xmlns:xlink="http://www.w3.org/1999/xlink" x="0px" y="0px"
	 viewBox="0 0 80 80" style="enable-background:new 0 0 80 80;" xml:space="preserve">
<style type="text/css">
	.st0{fill:#8E8E8E;}
	.st1{fill:#8E8E8E;stroke:#8E8E8E;stroke-width:0.5;stroke-miterlimit:10;}
	.st2{fill:#8E8E8E;stroke:#8E8E8E;stroke-width:0.5543;stroke-miterlimit:10;}
	.st3{fill:#8E8E8E;stroke:#8E8E8E;stroke-width:0.25;stroke-miterlimit:10;}
	.st4{fill:#8E8E8E;stroke:#8E8E8E;stroke-width:0.75;stroke-miterlimit:10;}
</style>
<g>
	<g>
		<path class="st1" d="M56.3,21.5H23.7c-1.2,0-2.2,1-2.2,2.2v4.8c0,0.9,0.6,1.7,1.4,2v2.3c0,0.4,0.3,0.7,0.7,0.7
			c0.4,0,0.7-0.3,0.7-0.7v-2.2h1.7v7.9c0,0.4,0.3,0.7,0.7,0.7h2.4v1.4h-4c-0.4,0-0.7-0.3-0.7-0.7v-1.4c0-0.4-0.3-0.7-0.7-0.7
			c-0.4,0-0.7,0.3-0.7,0.7V40c0,1.2,1,2.2,2.2,2.2h4v15.6c0,0.3,0.1,0.5,0.4,0.6c0.2,0.1,0.5,0.1,0.7,0l2.2-1.2l2.2,1.2
			c0.2,0.1,0.5,0.1,0.7,0l2.2-1.2l2.2,1.2c0.2,0.1,0.5,0.1,0.7,0l2.2-1.2l2.2,1.2c0.2,0.1,0.5,0.1,0.7,0l2.2-1.2l2.2,1.2
			c0.2,0.1,0.5,0.1,0.7,0c0.2-0.1,0.4-0.4,0.4-0.6c0-0.5,0-15,0-15.6h4c1.2,0,2.2-1,2.2-2.2v-9.5c0.8-0.3,1.4-1.1,1.4-2v-4.8
			C58.5,22.5,57.5,21.5,56.3,21.5L56.3,21.5z M49.4,46.5h-2.2c-0.4,0-0.7,0.3-0.7,0.7c0,0.4,0.3,0.7,0.7,0.7h2.2v8.6l-1.4-0.8
			c-0.2-0.1-0.5-0.1-0.7,0l-2.2,1.2l-2.2-1.2c-0.2-0.1-0.5-0.1-0.7,0L40,56.9l-2.2-1.2c-0.2-0.1-0.5-0.1-0.7,0l-2.2,1.2l-2.2-1.2
			c-0.2-0.1-0.5-0.1-0.7,0l-1.4,0.8v-8.6h2.2c0.4,0,0.7-0.3,0.7-0.7c0-0.4-0.3-0.7-0.7-0.7h-2.2v-13h18.8V46.5z M50.1,32.1H29.9
			c-0.4,0-0.7,0.3-0.7,0.7v5.1h-1.7v-7.2h25v7.2h-1.7v-5.1C50.8,32.4,50.5,32.1,50.1,32.1L50.1,32.1z M55.6,40
			c0,0.4-0.3,0.7-0.7,0.7h-4v-1.4h2.4c0.4,0,0.7-0.3,0.7-0.7v-7.9h1.7V40z M57,28.5c0,0.4-0.3,0.7-0.7,0.7c-1.6,0-31.3,0-32.6,0
			c-0.4,0-0.7-0.3-0.7-0.7v-4.8c0-0.4,0.3-0.7,0.7-0.7h32.6c0.4,0,0.7,0.3,0.7,0.7V28.5z M57,28.5"/>
	</g>
	<path class="st1" d="M35.7,47.9h2.9c0.4,0,0.7-0.3,0.7-0.7c0-0.4-0.3-0.7-0.7-0.7h-2.9c-0.4,0-0.7,0.3-0.7,0.7
		C34.9,47.6,35.3,47.9,35.7,47.9L35.7,47.9z M35.7,47.9"/>
	<path class="st1" d="M41.4,47.9h2.9c0.4,0,0.7-0.3,0.7-0.7c0-0.4-0.3-0.7-0.7-0.7h-2.9c-0.4,0-0.7,0.3-0.7,0.7
		C40.7,47.6,41,47.9,41.4,47.9L41.4,47.9z M41.4,47.9"/>
	<path class="st1" d="M24.4,35.7c0,0.4-0.3,0.7-0.7,0.7c-0.4,0-0.7-0.3-0.7-0.7s0.3-0.7,0.7-0.7C24.1,34.9,24.4,35.3,24.4,35.7
		L24.4,35.7z M24.4,35.7"/>
</g>
</svg>
