<?xml version="1.0" encoding="utf-8"?>
<!-- Generator: Adobe Illustrator 21.0.0, SVG Export Plug-In . SVG Version: 6.00 Build 0)  -->
<svg version="1.1" id="Capa_1" xmlns="http://www.w3.org/2000/svg" xmlns:xlink="http://www.w3.org/1999/xlink" x="0px" y="0px"
	 viewBox="0 0 80 80" style="enable-background:new 0 0 80 80;" xml:space="preserve">
<style type="text/css">
	.st0{fill:#8E8E8E;}
	.st1{fill:#8E8E8E;stroke:#8E8E8E;stroke-width:0.5;stroke-miterlimit:10;}
	.st2{fill:#8E8E8E;stroke:#8E8E8E;stroke-width:0.5543;stroke-miterlimit:10;}
	.st3{fill:#8E8E8E;stroke:#8E8E8E;stroke-width:0.25;stroke-miterlimit:10;}
	.st4{fill:#8E8E8E;stroke:#8E8E8E;stroke-width:0.75;stroke-miterlimit:10;}
</style>
<g>
	<path class="st1" d="M38.4,36.3h13.8c0.4,0,0.7-0.3,0.7-0.7s-0.3-0.7-0.7-0.7H38.4c-0.4,0-0.7,0.3-0.7,0.7S38,36.3,38.4,36.3
		L38.4,36.3z M38.4,36.3"/>
	<path class="st1" d="M38.4,40.2h10.1c0.4,0,0.7-0.3,0.7-0.7s-0.3-0.7-0.7-0.7H38.4c-0.4,0-0.7,0.3-0.7,0.7
		C37.7,39.9,38,40.2,38.4,40.2L38.4,40.2z M38.4,40.2"/>
	<path class="st1" d="M38.4,43.9h13.8c0.4,0,0.7-0.3,0.7-0.7s-0.3-0.7-0.7-0.7H38.4c-0.4,0-0.7,0.3-0.7,0.7
		C37.7,43.5,38,43.9,38.4,43.9L38.4,43.9z M38.4,43.9"/>
	<path class="st1" d="M39.7,46.5h-1.3c-0.4,0-0.7,0.3-0.7,0.7S38,48,38.4,48h1.3c0.4,0,0.7-0.3,0.7-0.7S40.2,46.5,39.7,46.5
		L39.7,46.5z M39.7,46.5"/>
	<path class="st1" d="M39.7,50.1h-1.3c-0.4,0-0.7,0.3-0.7,0.7s0.3,0.7,0.7,0.7h1.3c0.4,0,0.7-0.3,0.7-0.7
		C40.5,50.5,40.2,50.1,39.7,50.1L39.7,50.1z M39.7,50.1"/>
	<path class="st1" d="M52.3,46.5h-9.6c-0.4,0-0.7,0.3-0.7,0.7s0.3,0.7,0.7,0.7h9.6c0.4,0,0.7-0.3,0.7-0.7S52.7,46.5,52.3,46.5
		L52.3,46.5z M52.3,46.5"/>
	<g>
		<path class="st1" d="M49.2,50.9c0-0.4-0.3-0.7-0.7-0.7h-5.8c-0.4,0-0.7,0.3-0.7,0.7c0,0.4,0.3,0.7,0.7,0.7h5.8
			C48.9,51.6,49.2,51.3,49.2,50.9L49.2,50.9z M49.2,50.9"/>
		<path class="st1" d="M47.8,59.8c0.3,0.3,0.8,0.3,1,0l2.5-2.5l2.5,2.5c0.1,0.1,0.3,0.2,0.5,0.2c0.2,0,0.4-0.1,0.5-0.2l1.5-1.5
			c0.1-0.1,0.2-0.3,0.2-0.5V32.5c0-1.9-1.5-3.4-3.4-3.4h-5.7v-8.3c0-0.4-0.3-0.7-0.7-0.7H24.1c-0.4,0-0.7,0.3-0.7,0.7V46
			c0,1.9,1.5,3.4,3.4,3.4H31c0.4,0,0.7-0.3,0.7-0.7s-0.3-0.7-0.7-0.7h-1.5c0.4-0.5,0.6-1.2,0.6-1.9V32.5c0-1,0.9-1.9,1.9-1.9
			c1,0,1.9,0.9,1.9,1.9v25.3c0,0,0,0.1,0,0.1c0,0,0,0.1,0,0.1c0,0,0,0,0,0c0,0,0,0.1,0,0.1c0,0,0,0,0,0c0,0,0.1,0.1,0.1,0.1l1.5,1.5
			c0.3,0.3,0.8,0.3,1,0l2.5-2.5l2.5,2.5c0.3,0.3,0.8,0.3,1,0l2.5-2.5L47.8,59.8z M28.6,32.5V46c0,1-0.9,1.9-1.9,1.9
			c-1,0-1.9-0.9-1.9-1.9V21.5h21.3v7.6H32C30.1,29.1,28.6,30.6,28.6,32.5L28.6,32.5z M42.2,58.2l-2.5-2.5c-0.1-0.1-0.3-0.2-0.5-0.2
			s-0.4,0.1-0.5,0.2l-2.5,2.5l-0.8-0.8v-25c0-0.1,0-0.2,0-0.3c0,0,0-0.1,0-0.1c0-0.1,0-0.1,0-0.2c0,0,0-0.1,0-0.1
			c0-0.1,0-0.2-0.1-0.3c0,0,0,0,0,0c0-0.1-0.1-0.2-0.1-0.3c0,0,0,0,0-0.1C35,31,35,31,35,30.9c0,0,0,0,0-0.1c0-0.1-0.1-0.2-0.1-0.2
			c0,0,0,0,0,0v0h18.5c1,0,1.9,0.9,1.9,1.9v25l-0.8,0.8l-2.5-2.5c-0.3-0.3-0.8-0.3-1,0l-2.5,2.5l-2.5-2.5c-0.3-0.3-0.8-0.3-1,0
			L42.2,58.2z M42.2,58.2"/>
	</g>
</g>
</svg>
