<?xml version="1.0" encoding="utf-8"?>
<!-- Generator: Adobe Illustrator 21.0.0, SVG Export Plug-In . SVG Version: 6.00 Build 0)  -->
<svg version="1.1" id="Capa_1" xmlns="http://www.w3.org/2000/svg" xmlns:xlink="http://www.w3.org/1999/xlink" x="0px" y="0px"
	 viewBox="0 0 80 80" style="enable-background:new 0 0 80 80;" xml:space="preserve">
<style type="text/css">
	.st0{fill:#8E8E8E;}
	.st1{fill:#8E8E8E;stroke:#8E8E8E;stroke-width:0.5;stroke-miterlimit:10;}
	.st2{fill:#8E8E8E;stroke:#8E8E8E;stroke-width:0.5543;stroke-miterlimit:10;}
	.st3{fill:#8E8E8E;stroke:#8E8E8E;stroke-width:0.25;stroke-miterlimit:10;}
	.st4{fill:#8E8E8E;stroke:#8E8E8E;stroke-width:0.75;stroke-miterlimit:10;}
</style>
<g>
	<g>
		<path class="st0" d="M58.3,33.3l-7.9-3.6v-7.6c0-0.6-0.5-1.1-1.1-1.1c0,0-17.1,0-17.2,0c-0.3,0-0.6,0.1-0.9,0.3l-9.9,9.9
			c-0.2,0.2-0.3,0.5-0.3,0.8c0,0,0,25.8,0,25.8c0,0.6,0.5,1.1,1.1,1.1h27.2c0.6,0,1.1-0.5,1.1-1.1v-5.5l5.6-4.2c2-1.5,3-3.9,3-7
			v-6.9C59,33.8,58.7,33.4,58.3,33.3L58.3,33.3z M30.9,24.8v6.1h-6.1L30.9,24.8z M23.2,56.8V33.2h8.8c0.6,0,1.1-0.5,1.1-1.1v-8.8
			h15.1v6.5l-7.8,3.5c-0.4,0.2-0.7,0.6-0.7,1v6.9c0,3.1,1,5.5,3,7l5.5,4.2v4.5H23.2z M56.8,41.2c0,2.4-0.7,4.2-2.1,5.2l-5.3,4
			l-5.3-4c-1.4-1.1-2.1-2.8-2.1-5.2V35l7.4-3.3l7.4,3.3V41.2z M56.8,41.2"/>
	</g>
	<path class="st0" d="M47.9,39.9c-0.4-0.4-1.1-0.4-1.6,0c-0.4,0.4-0.4,1.1,0,1.6l1.7,1.7c0.2,0.2,0.5,0.3,0.8,0.3
		c0.3,0,0.6-0.1,0.8-0.3l3.7-3.7c0.4-0.4,0.4-1.1,0-1.6c-0.4-0.4-1.1-0.4-1.6,0l-2.9,2.9L47.9,39.9z M47.9,39.9"/>
</g>
</svg>
