<?xml version="1.0" encoding="utf-8"?>
<!-- Generator: Adobe Illustrator 21.0.0, SVG Export Plug-In . SVG Version: 6.00 Build 0)  -->
<svg version="1.1" id="Capa_1" xmlns="http://www.w3.org/2000/svg" xmlns:xlink="http://www.w3.org/1999/xlink" x="0px" y="0px"
	 viewBox="0 0 80 80" style="enable-background:new 0 0 80 80;" xml:space="preserve">
<style type="text/css">
	.st0{fill:#8E8E8E;}
	.st1{fill:#8E8E8E;stroke:#8E8E8E;stroke-width:0.5;stroke-miterlimit:10;}
	.st2{fill:#8E8E8E;stroke:#8E8E8E;stroke-width:0.5543;stroke-miterlimit:10;}
	.st3{fill:#8E8E8E;stroke:#8E8E8E;stroke-width:0.25;stroke-miterlimit:10;}
	.st4{fill:#8E8E8E;stroke:#8E8E8E;stroke-width:0.75;stroke-miterlimit:10;}
</style>
<g>
	<g>
		<path class="st3" d="M50.1,52.8H28.3c-0.4,0-0.8,0.3-0.8,0.8v6.2c0,0.4,0.3,0.8,0.8,0.8h21.8c0.4,0,0.8-0.3,0.8-0.8v-6.2
			C50.9,53.2,50.5,52.8,50.1,52.8L50.1,52.8z M49.3,59.1H29.1v-4.7h1.6v2.3h1.6v-2.3h1.6V56h1.6v-1.6h1.6v2.3h1.6v-2.3H40V56h1.6
			v-1.6h1.6v2.3h1.6v-2.3h1.6V56h1.6v-1.6h1.6V59.1z M49.3,59.1"/>
		<path class="st3" d="M61.8,19.8c-1.5-0.9-3.4-0.4-4.3,1.1L54,27v-1.4c0-0.4-0.3-0.8-0.8-0.8h-2.3v-2.3c0-0.4-0.3-0.8-0.8-0.8H25.3
			c-0.2-0.4-0.4-0.7-0.7-1c-1.3-1.3-3.3-1.7-5.1-1c-1.7,0.7-2.9,2.4-2.9,4.3v23.3c0,2.1,1.7,3.9,3.9,3.9h31.9c0.4,0,0.8-0.3,0.8-0.8
			v-2.3c0.4,0,0.8-0.3,0.8-0.8v-8.1l6.4-10.9l1.4-2.3l1.2-2C63.8,22.6,63.3,20.7,61.8,19.8L61.8,19.8z M61,21.1
			c0.7,0.4,1,1.4,0.6,2.1l-0.8,1.3L58.1,23l0.8-1.3C59.3,21,60.3,20.7,61,21.1L61,21.1z M48.8,42.6c-0.1,0.1-0.2,0.1-0.4,0
			c-0.1-0.1-0.2-0.2-0.1-0.3l0.6-3l2.2,1.3L48.8,42.6z M52.2,39.4l-1.3-0.8l-1.3-0.8l6.3-10.7l2.7,1.6L52.2,39.4z M57.3,24.4L60,26
			l-0.8,1.3l-2.7-1.6L57.3,24.4z M52.5,29.6l-4.7,8.1c0,0.1,0,0.1-0.1,0.2c0,0,0,0,0,0.1L46.8,42c0,0.2-0.1,0.5,0,0.7h-2.9v-4.7h1.6
			c0.3,0,0.6-0.2,0.7-0.5c0.1-0.3,0-0.6-0.2-0.9l-6.2-5.4c-0.3-0.3-0.7-0.3-1,0l-6.2,5.4c-0.2,0.2-0.3,0.6-0.2,0.9
			c0.1,0.3,0.4,0.5,0.7,0.5h1.6v4.7h-5.4v-2.3h1.6v-1.6h-1.6v-3.1h1.6v-1.6h-1.6v-3.1h1.6v-1.6h-1.6v-1.6h-1.6v16.3h21
			c0.1,0,0.2,0,0.3-0.1c0.4,0,0.7-0.2,1-0.4l2.6-2.3v5.1H26V26.4h26.5V29.6z M35.1,36.5l4.2-3.6l4.2,3.6H35.1z M36.1,38.1h6.2v4.7
			h-6.2V38.1z M49.3,24.8H26V24c0-0.3,0-0.5-0.1-0.8h23.4V24.8z M18.2,24c0-1.3,0.8-2.4,1.9-2.9c1.2-0.5,2.5-0.2,3.4,0.7
			c0.6,0.6,0.9,1.4,0.9,2.2v19.9c-1.8-1.6-4.5-1.6-6.2,0V24z M51.7,49.7H20.5c-1.3,0-2.3-1-2.3-2.3c0-1.7,1.4-3.1,3.1-3.1
			c1.7,0,3.1,1.4,3.1,3.1c0,0.4,0.3,0.8,0.8,0.8h26.5V49.7z M51.7,49.7"/>
	</g>
</g>
</svg>
